<svg xmlns="http://www.w3.org/2000/svg" version="1.1" xmlns:xlink="http://www.w3.org/1999/xlink" xmlns:svgjs="http://svgjs.dev/svgjs" width="1440" height="560" preserveAspectRatio="none" viewBox="0 0 1440 560"><g mask="url(&quot;#SvgjsMask1083&quot;)" fill="none"><rect width="1440" height="560" x="0" y="0" fill="#0e2a47"></rect><path d="M0,494.448C91.278,487.223,135.307,379.341,208.056,323.741C273.178,273.97,368.206,258.2,404.967,184.942C441.959,111.225,404.097,24.926,399.322,-57.414C394.025,-148.755,437.478,-258.075,375.378,-325.267C312.963,-392.799,199.082,-352.643,109.071,-371.461C28.286,-388.35,-48.944,-458.911,-126.303,-430.15C-203.96,-401.278,-218.806,-298.781,-267.231,-231.557C-310.303,-171.763,-379.463,-128.811,-395.229,-56.825C-411.4,17.009,-381.174,91.089,-353.283,161.339C-324.12,234.794,-287.86,304.225,-230.358,358.443C-164.139,420.881,-90.73,501.63,0,494.448" fill="#0b2037"></path><path d="M1440 1107.855C1540.112 1095.955 1607.815 1005.86 1684.404 940.3 1750.754 883.505 1812.454 825.511 1857.356 750.6 1906.858 668.015 1962.784 581.785 1956.904 485.68 1950.858 386.86199999999997 1891.346 299.889 1825.267 226.16500000000002 1759.9560000000001 153.298 1676.558 101.339 1583.988 69.62200000000001 1488.284 36.83100000000002 1385.28 14.576000000000022 1287.917 42.05200000000002 1190.09 69.65899999999999 1097.484 131.68900000000002 1048.4769999999999 220.743 1002.328 304.60400000000004 1039.421 406.14599999999996 1034.937 501.761 1030.974 586.26 1003.9259999999999 667.88 1023.649 750.141 1046.2730000000001 844.5 1081.568 939.976 1155.167 1003.21 1233.474 1070.489 1337.482 1120.0410000000002 1440 1107.855" fill="#113457"></path></g><defs><mask id="SvgjsMask1083"><rect width="1440" height="560" fill="#ffffff"></rect></mask></defs></svg>