<svg xmlns="http://www.w3.org/2000/svg" version="1.1" xmlns:xlink="http://www.w3.org/1999/xlink" xmlns:svgjs="http://svgjs.dev/svgjs" width="1920" height="1080" preserveAspectRatio="none" viewBox="0 0 1920 1080"><g mask="url(&quot;#SvgjsMask1020&quot;)" fill="none"><rect width="1920" height="1080" x="0" y="0" fill="rgba(21, 67, 96, 1)"></rect><path d="M0,651.995C118.309,632.136,184.049,506.773,291.823,454.085C420.614,391.122,630.034,445.327,689.533,314.899C749.042,184.451,577.923,59.708,533.996,-76.777C499.582,-183.704,514.767,-300.494,459.92,-398.523C396.565,-511.759,325.457,-649.13,198.575,-676.284C71.093,-703.567,-29.1,-561.385,-155.702,-530.273C-291.346,-496.939,-451.184,-570.989,-564.159,-488.847C-679.905,-404.69,-727.574,-248.897,-738.905,-106.239C-749.896,32.138,-693.679,164.721,-625.685,285.741C-561.857,399.346,-474.855,498.071,-362.397,563.9C-252.892,628.001,-125.136,673,0,651.995" fill="#0f3146"></path><path d="M1920 1748.921C2047.443 1745.299 2163.331 1693.1100000000001 2277.317 1635.9969999999998 2403.67 1572.688 2550.476 1522.878 2618.442 1398.968 2687.627 1272.835 2678.997 1114.811 2638.99 976.625 2601.725 847.91 2469.8869999999997 777.131 2404.541 660.143 2315.3940000000002 500.54499999999996 2350.685 251.20000000000005 2187.624 168.55700000000002 2031.698 89.52999999999997 1848.431 223.39 1690.451 298.227 1552.258 363.69100000000003 1441.027 462.95399999999995 1334.525 572.683 1221.921 688.6990000000001 1053.165 793.625 1052.7 955.301 1052.228 1119.419 1237.446 1214.46 1332.2930000000001 1348.397 1406.4299999999998 1453.089 1443.379 1584.443 1549.386 1656.687 1656.76 1729.863 1790.114 1752.613 1920 1748.921" fill="#1b557a"></path></g><defs><mask id="SvgjsMask1020"><rect width="1920" height="1080" fill="#ffffff"></rect></mask></defs></svg>